HIERARCHY
ROOT hip
{
  OFFSET -3.45441 84.2526 35.6974
  CHANNELS 6 Xposition Yposition Zposition Zrotation Xrotation Yrotation
  JOINT abdomen
  {
    OFFSET 0 20.6881 -0.73152
    CHANNELS 3 Zrotation Xrotation Yrotation
    JOINT chest
    {
      OFFSET 0 11.7043 -0.48768
      CHANNELS 3 Zrotation Xrotation Yrotation
      JOINT neck
      {
        OFFSET 0 22.1894 -2.19456
        CHANNELS 3 Zrotation Xrotation Yrotation
        JOINT head
        {
          OFFSET -0.24384 7.07133 1.2192
          CHANNELS 3 Zrotation Xrotation Yrotation
          JOINT leftEye
          {
            OFFSET 4.14528 8.04674 8.04672
            CHANNELS 3 Zrotation Xrotation Yrotation
            End Site
            {
              OFFSET 1 0 0
            }
          }
          JOINT rightEye
          {
            OFFSET -3.6576 8.04674 8.04672
            CHANNELS 3 Zrotation Xrotation Yrotation
            End Site
            {
              OFFSET 1 0 0
            }
          }
        }
      }
      JOINT rCollar
      {
        OFFSET -2.68224 19.2634 -4.8768
        CHANNELS 3 Zrotation Xrotation Yrotation
        JOINT rShldr
        {
          OFFSET -8.77824 -1.95073 1.46304
          CHANNELS 3 Zrotation Xrotation Yrotation
          JOINT rForeArm
          {
            OFFSET -28.1742 -1.7115 0.48768
            CHANNELS 3 Zrotation Xrotation Yrotation
            JOINT rHand
            {
              OFFSET -22.5879 0.773209 7.07136
              CHANNELS 3 Zrotation Xrotation Yrotation
              JOINT rThumb1
              {
                OFFSET -1.2192 -0.487915 3.41376
                CHANNELS 3 Zrotation Xrotation Yrotation
                JOINT rThumb2
                {
                  OFFSET -3.37035 -0.52449 3.41376
                  CHANNELS 3 Zrotation Xrotation Yrotation
                  End Site
                  {
                    OFFSET -1.78271 -1.18214 1.43049
                  }
                }
              }
              JOINT rIndex1
              {
                OFFSET -7.75947 0.938293 5.60832
                CHANNELS 3 Zrotation Xrotation Yrotation
                JOINT rIndex2
                {
                  OFFSET -2.54057 -0.884171 1.56538
                  CHANNELS 3 Zrotation Xrotation Yrotation
                  End Site
                  {
                    OFFSET -1.62519 -0.234802 1.16502
                  }
                }
              }
              JOINT rMid1
              {
                OFFSET -8.24714 1.18213 3.41376
                CHANNELS 3 Zrotation Xrotation Yrotation
                JOINT rMid2
                {
                  OFFSET -3.10165 -0.590103 1.0647
                  CHANNELS 3 Zrotation Xrotation Yrotation
                  End Site
                  {
                    OFFSET -2.48547 -0.328903 0.83742
                  }
                }
              }
              JOINT rRing1
              {
                OFFSET -8.82822 0.546677 1.51678
                CHANNELS 3 Zrotation Xrotation Yrotation
                JOINT rRing2
                {
                  OFFSET -2.60934 -0.819778 -0.0198488
                  CHANNELS 3 Zrotation Xrotation Yrotation
                  End Site
                  {
                    OFFSET -2.33842 -0.294052 0.168128
                  }
                }
              }
              JOINT rPinky1
              {
                OFFSET -8.27202 -0.0477905 -0.4584
                CHANNELS 3 Zrotation Xrotation Yrotation
                JOINT rPinky2
                {
                  OFFSET -1.82734 -0.647385 -0.700984
                  CHANNELS 3 Zrotation Xrotation Yrotation
                  End Site
                  {
                    OFFSET -1.69225 -0.51767 -0.607171
                  }
                }
              }
            }
          }
        }
      }
      JOINT lCollar
      {
        OFFSET 2.68224 19.2634 -4.8768
        CHANNELS 3 Zrotation Xrotation Yrotation
        JOINT lShldr
        {
          OFFSET 8.77824 -1.95073 1.46304
          CHANNELS 3 Zrotation Xrotation Yrotation
          JOINT lForeArm
          {
            OFFSET 28.1742 -1.7115 0.48768
            CHANNELS 3 Zrotation Xrotation Yrotation
            JOINT lHand
            {
              OFFSET 22.5879 0.773209 7.07136
              CHANNELS 3 Zrotation Xrotation Yrotation
              JOINT lThumb1
              {
                OFFSET 1.2192 -0.487915 3.41376
                CHANNELS 3 Zrotation Xrotation Yrotation
                JOINT lThumb2
                {
                  OFFSET 3.37035 -0.52449 3.41376
                  CHANNELS 3 Zrotation Xrotation Yrotation
                  End Site
                  {
                    OFFSET 1.78271 -1.18214 1.43049
                  }
                }
              }
              JOINT lIndex1
              {
                OFFSET 7.75947 0.938293 5.60832
                CHANNELS 3 Zrotation Xrotation Yrotation
                JOINT lIndex2
                {
                  OFFSET 2.54057 -0.884171 1.56538
                  CHANNELS 3 Zrotation Xrotation Yrotation
                  End Site
                  {
                    OFFSET 1.62519 -0.234802 1.16502
                  }
                }
              }
              JOINT lMid1
              {
                OFFSET 8.24714 1.18213 3.41376
                CHANNELS 3 Zrotation Xrotation Yrotation
                JOINT lMid2
                {
                  OFFSET 3.10165 -0.590103 1.0647
                  CHANNELS 3 Zrotation Xrotation Yrotation
                  End Site
                  {
                    OFFSET 2.48547 -0.328903 0.83742
                  }
                }
              }
              JOINT lRing1
              {
                OFFSET 8.82822 0.546677 1.51678
                CHANNELS 3 Zrotation Xrotation Yrotation
                JOINT lRing2
                {
                  OFFSET 2.60934 -0.819778 -0.0198488
                  CHANNELS 3 Zrotation Xrotation Yrotation
                  End Site
                  {
                    OFFSET 2.33842 -0.294052 0.168128
                  }
                }
              }
              JOINT lPinky1
              {
                OFFSET 8.27202 -0.0477905 -0.4584
                CHANNELS 3 Zrotation Xrotation Yrotation
                JOINT lPinky2
                {
                  OFFSET 1.82734 -0.647385 -0.700984
                  CHANNELS 3 Zrotation Xrotation Yrotation
                  End Site
                  {
                    OFFSET 1.69225 -0.51767 -0.607171
                  }
                }
              }
            }
          }
        }
      }
    }
  }
  JOINT rButtock
  {
    OFFSET -8.77824 4.35084 1.2192
    CHANNELS 3 Zrotation Xrotation Yrotation
    JOINT rThigh
    {
      OFFSET 0 -1.70687 -2.19456
      CHANNELS 3 Zrotation Xrotation Yrotation
      JOINT rShin
      {
        OFFSET 0 -36.8199 0.73152
        CHANNELS 3 Zrotation Xrotation Yrotation
        JOINT rFoot
        {
          OFFSET 0.73152 -45.1104 -5.12064
          CHANNELS 3 Zrotation Xrotation Yrotation
          End Site
          {
            OFFSET -1.1221 -3.69964 12.103
          }
        }
      }
    }
  }
  JOINT lButtock
  {
    OFFSET 8.77824 4.35084 1.2192
    CHANNELS 3 Zrotation Xrotation Yrotation
    JOINT lThigh
    {
      OFFSET 0 -1.70687 -2.19456
      CHANNELS 3 Zrotation Xrotation Yrotation
      JOINT lShin
      {
        OFFSET 0 -36.8199 0.73152
        CHANNELS 3 Zrotation Xrotation Yrotation
        JOINT lFoot
        {
          OFFSET -0.73152 -45.1104 -5.12064
          CHANNELS 3 Zrotation Xrotation Yrotation
          End Site
          {
            OFFSET 1.1221 -3.69964 12.103
          }
        }
      }
    }
  }
}
MOTION
Frames:	7
Frame Time:	0.00833333
-3.42736 84.2564 36.446 0.943685 0.00141505 -0.017486 -1.24153 -0.00398111 -0.0340793 -0.342498 -0.00249241 -0.059328 2.93146e-014 0 -6.21202e-017 8.7664e-014 3.18055e-015 -2.11209e-016 -0 0 0 -0 0 0 1.47095e-014 4.67843e-017 4.96962e-017 3.09751e-013 1.09953e-015 7.95139e-016 5.2917e-012 -1.55191e-012 -8.26944e-014 6.05845e-011 1.7583e-012 -4.45278e-014 1.42908e-010 4.44688e-013 -2.70347e-013 2.46795e-010 7.66514e-013 -4.86625e-013 1.42915e-010 4.4647e-013 -2.79889e-013 7.73091 5.47488 0.417314 1.42908e-010 4.4488e-013 -2.73528e-013 2.90554 0.965183 0.102902 1.42918e-010 4.4488e-013 -2.76708e-013 10.2786 0.731801 0.0259123 1.42904e-010 4.45675e-013 -2.73528e-013 2.22167 -0.733487 -0.20892 1.47116e-014 4.69784e-017 -9.93923e-017 3.04277e-013 1.00014e-015 -5.96354e-016 5.29259e-012 1.61493e-012 -5.08889e-014 6.05732e-011 -1.41386e-012 -7.31528e-014 1.42888e-010 4.33605e-013 -2.79889e-013 2.4677e-010 7.4743e-013 -4.70722e-013 1.42883e-010 4.33748e-013 -2.67167e-013 -7.73091 5.47488 -0.417314 1.42887e-010 4.34046e-013 -2.76708e-013 -2.90554 0.965183 -0.102902 1.42878e-010 4.33848e-013 -2.71142e-013 -10.2786 0.731801 -0.0259123 1.42894e-010 4.34146e-013 -2.76708e-013 -2.22167 -0.733487 0.20892 -2.03217e-016 0 -3.88251e-019 -0.453617 -1.92099 -0.00953085 -0.00915724 -2.07857 -0.0755666 -0.487689 3.99699 0.136688 2.03217e-016 0 3.88251e-019 -1.43706 -5.97118 0.129651 -0.00126574 5.25801 -0.0454276 0.507589 0.710721 -0.0722465 
-3.79305 84.3751 35.5844 0.782012 0.6637 -0.544603 -1.48516 -0.120475 0.200404 -0.0997061 -1.13174 0.000719505 -0.394303 1.50583 -0.747471 1.75484 0.0859148 -1.41976 -0 0 0 -0 0 0 2.01907e-014 7.10881e-015 9.10993e-015 22.9351 7.76352 -2.79762 -9.31068 -6.17314 11.8272 0.166962 -9.15678 -1.23019 5.86816e-011 1.15442e-010 7.08828e-011 9.9651e-011 2.01438e-010 1.21274e-010 5.86904e-011 1.15441e-010 7.08711e-011 7.73091 5.47488 0.417314 5.86856e-011 1.15439e-010 7.08765e-011 2.90554 0.965183 0.102902 5.86949e-011 1.15439e-010 7.08761e-011 10.2786 0.731801 0.0259123 5.86781e-011 1.15444e-010 7.08792e-011 2.22167 -0.733487 -0.20892 2.01476e-014 7.10977e-015 8.97443e-015 -22.0049 14.6091 -0.0645273 7.74761 -4.69581 -10.556 -0.0227346 -3.34867 0.467734 2.21854e-011 -1.35211e-010 -1.70685e-011 3.84702e-011 -2.34485e-010 -3.03765e-011 2.21792e-011 -1.35209e-010 -1.70555e-011 -7.73091 5.47488 -0.417314 2.2184e-011 -1.35208e-010 -1.7064e-011 -2.90554 0.965183 -0.102902 2.21776e-011 -1.35211e-010 -1.70618e-011 -10.2786 0.731801 -0.0259123 2.21892e-011 -1.3521e-010 -1.70678e-011 -2.22167 -0.733487 0.20892 -2.03217e-016 0 -3.88251e-019 -2.19196 -0.177406 1.08301 -0.0041796 -2.6217 -0.0884444 -0.365303 -0.482749 -4.1235 2.03217e-016 0 3.88251e-019 0.61809 -3.32597 -1.09442 -0.00499809 3.70739 -0.0271152 0.554614 -1.6747 3.88498 
-3.77805 84.3658 35.5048 0.624536 1.36444 -1.09913 -1.7502 -0.245704 0.45637 0.160144 -2.32769 0.0666072 -0.768895 3.10095 -1.5382 3.61824 0.164158 -2.91759 -0 0 0 -0 0 0 2.62405e-014 1.37849e-014 1.87106e-014 48.059 15.9065 -5.98872 -16.4001 -11.7975 24.7287 -0.106405 -18.6837 -2.62165 -3.57526e-011 2.4398e-010 1.44502e-010 -6.509e-011 4.25345e-010 2.47102e-010 -3.57417e-011 2.43977e-010 1.44487e-010 7.73091 5.47488 0.417314 -3.57444e-011 2.43974e-010 1.44492e-010 2.90554 0.965183 0.102902 -3.57359e-011 2.43974e-010 1.44494e-010 10.2786 0.731801 0.0259123 -3.57557e-011 2.43985e-010 1.44497e-010 2.22167 -0.733487 -0.20892 2.61472e-014 1.37867e-014 1.85895e-014 -45.2572 29.9782 -0.0660188 14.0641 -9.1079 -21.9122 0.0130377 -6.87141 0.965224 -1.00178e-010 -2.62698e-010 -3.21497e-011 -1.72732e-010 -4.55615e-010 -5.73401e-011 -1.00185e-010 -2.62695e-010 -3.21363e-011 -7.73091 5.47488 -0.417314 -1.0018e-010 -2.62694e-010 -3.21435e-011 -2.90554 0.965183 -0.102902 -1.00183e-010 -2.62699e-010 -3.21452e-011 -10.2786 0.731801 -0.0259123 -1.00176e-010 -2.62697e-010 -3.21516e-011 -2.22167 -0.733487 0.20892 -2.03217e-016 0 -3.88251e-019 -4.10175 1.66531 2.23685 0.000832203 -3.19529 -0.102086 -0.959726 -5.16358 -8.66173 2.03217e-016 0 3.88251e-019 2.91369 -0.531306 -2.38693 -0.00781302 2.0699 -0.00786331 0.962723 -4.16521 8.08614 
-3.76869 84.3687 35.4212 0.495237 1.98758 -1.59969 -1.96957 -0.353441 0.669382 0.392987 -3.39024 0.121026 -1.06476 4.51441 -2.24862 5.27729 0.257112 -4.25933 -0 0 0 -0 0 0 3.11532e-014 2.12329e-014 2.72304e-014 71.238 23.0586 -9.04377 -20.607 -15.3486 36.786 -0.804567 -27.4163 -4.10529 -1.09771e-010 3.45436e-010 2.13189e-010 -1.94637e-010 6.02781e-010 3.64794e-010 -1.09759e-010 3.4543e-010 2.13173e-010 7.73091 5.47488 0.417314 -1.0976e-010 3.45426e-010 2.13177e-010 2.90554 0.965183 0.102902 -1.09752e-010 3.45427e-010 2.13182e-010 10.2786 0.731801 0.0259123 -1.09774e-010 3.45442e-010 2.13185e-010 2.22167 -0.733487 -0.20892 3.10195e-014 2.12353e-014 2.71221e-014 -65.8839 43.8272 -0.259655 18.25 -12.174 -32.3736 0.0979722 -10.0433 1.42261 -2.19221e-010 -4.06499e-010 -5.06456e-011 -3.7813e-010 -7.04951e-010 -9.01881e-011 -2.19228e-010 -4.06494e-010 -5.06322e-011 -7.73091 5.47488 -0.417314 -2.19222e-010 -4.06493e-010 -5.06385e-011 -2.90554 0.965183 -0.102902 -2.19223e-010 -4.065e-010 -5.06432e-011 -10.2786 0.731801 -0.0259123 -2.1922e-010 -4.06497e-010 -5.06501e-011 -2.22167 -0.733487 0.20892 -2.03217e-016 0 -3.88251e-019 -5.86825 3.30427 3.27351 0.00504142 -3.70796 -0.114261 -2.12066 -9.21495 -12.8108 2.03217e-016 0 3.88251e-019 5.06695 1.95893 -3.53768 -0.009495 0.606145 0.00929814 1.63454 -6.32021 11.8676 
-3.77444 84.3697 35.3638 0.410821 2.41737 -1.96454 -2.07702 -0.417474 0.774993 0.552831 -4.11932 0.146527 -1.24752 5.47661 -2.75227 6.41944 0.387228 -5.21084 -0 0 0 -0 0 0 3.32233e-014 3.06107e-014 3.3048e-014 87.7014 27.9754 -11.1117 -22.6198 -16.717 45.4992 -1.6882 -34.208 -5.48242 -1.32752e-010 3.79183e-010 2.69549e-010 -2.36201e-010 6.64036e-010 4.62143e-010 -1.32739e-010 3.79176e-010 2.69533e-010 7.73091 5.47488 0.417314 -1.32739e-010 3.79171e-010 2.69536e-010 2.90554 0.965183 0.102902 -1.32731e-010 3.79172e-010 2.69542e-010 10.2786 0.731801 0.0259123 -1.32755e-010 3.79189e-010 2.69546e-010 2.22167 -0.733487 -0.20892 3.30736e-014 3.06132e-014 3.29486e-014 -79.6999 53.8719 -1.11257 20.5112 -13.6686 -39.9358 0.190497 -12.3405 1.76194 -3.2996e-010 -5.91082e-010 -7.76787e-011 -5.69016e-010 -1.02481e-009 -1.37747e-010 -3.29968e-010 -5.91077e-010 -7.7666e-011 -7.73091 5.47488 -0.417314 -3.29962e-010 -5.91076e-010 -7.76723e-011 -2.90554 0.965183 -0.102902 -3.29961e-010 -5.91084e-010 -7.76779e-011 -10.2786 0.731801 -0.0259123 -3.2996e-010 -5.91081e-010 -7.7685e-011 -2.22167 -0.733487 0.20892 -2.03217e-016 0 -3.88251e-019 -7.1361 4.43956 4.01038 0.00776225 -4.06835 -0.122722 -3.28419 -11.9264 -15.7924 2.03217e-016 0 3.88251e-019 6.62495 3.69561 -4.32975 -0.0104235 -0.42329 0.0213429 2.26937 -7.75885 14.5314 
-3.79377 84.3671 35.3417 0.377265 2.58131 -2.15057 -2.0151 -0.425379 0.737438 0.603353 -4.38715 0.133268 -1.31511 5.81497 -2.96567 6.83661 0.582476 -5.62233 -0 0 0 -0 0 0 3.16952e-014 4.85002e-014 3.5334e-014 93.8052 29.9407 -11.3046 -23.3207 -17.0641 49.1635 -2.36726 -38.4852 -6.46724 -6.55963e-011 3.01041e-010 3.24458e-010 -1.23081e-010 5.34578e-010 5.5875e-010 -6.55867e-011 3.01035e-010 3.24446e-010 7.73091 5.47488 0.417314 -6.5585e-011 3.0103e-010 3.24449e-010 2.90554 0.965183 0.102902 -6.55783e-011 3.01031e-010 3.24455e-010 10.2786 0.731801 0.0259123 -6.56006e-011 3.01046e-010 3.24458e-010 2.22167 -0.733487 -0.20892 3.1567e-014 4.85018e-014 3.52381e-014 -83.7428 58.64 -3.10015 21.3634 -14.1985 -43.2026 0.24077 -13.4198 1.92393 -4.61437e-010 -9.19638e-010 -1.30132e-010 -7.95237e-010 -1.59387e-009 -2.29471e-010 -4.61444e-010 -9.19634e-010 -1.30121e-010 -7.73091 5.47488 -0.417314 -4.6144e-010 -9.19634e-010 -1.3013e-010 -2.90554 0.965183 -0.102902 -4.61439e-010 -9.1964e-010 -1.30132e-010 -10.2786 0.731801 -0.0259123 -4.61436e-010 -9.19638e-010 -1.3014e-010 -2.22167 -0.733487 0.20892 -2.03217e-016 0 -3.88251e-019 -7.64727 4.86582 4.30474 0.00857752 -4.22028 -0.125806 -3.80601 -12.9176 -16.9627 2.03217e-016 0 3.88251e-019 7.24102 4.38454 -4.59754 -0.0113817 -0.85273 0.0263178 2.54581 -8.27975 15.5854 
-3.80204 84.3715 35.2979 0.377252 2.55529 -2.20814 -1.83283 -0.392951 0.597278 0.575757 -4.32525 0.0922033 -1.30878 5.70805 -2.97042 6.73384 0.823864 -5.64785 -0 0 0 -0 0 0 2.75788e-014 7.21929e-014 3.50855e-014 92.3056 29.8288 -10.0257 -23.3852 -17.2622 49.2017 -2.74042 -40.9723 -7.06075 6.50519e-011 1.43794e-010 3.77577e-010 9.9028e-011 2.70232e-010 6.53506e-010 6.5057e-011 1.43791e-010 3.77572e-010 7.73091 5.47488 0.417314 6.50592e-011 1.43784e-010 3.77576e-010 2.90554 0.965183 0.102902 6.50657e-011 1.43785e-010 3.77579e-010 10.2786 0.731801 0.0259123 6.50459e-011 1.43796e-010 3.77584e-010 2.22167 -0.733487 -0.20892 2.74988e-014 7.21927e-014 3.49892e-014 -80.9552 59.5977 -5.77267 21.4617 -14.4017 -43.3596 0.246858 -13.6294 1.95497 -6.06184e-010 -1.34689e-009 -2.00102e-010 -1.04405e-009 -2.33378e-009 -3.51619e-010 -6.06192e-010 -1.34689e-009 -2.00094e-010 -7.73091 5.47488 -0.417314 -6.06189e-010 -1.34689e-009 -2.00105e-010 -2.90554 0.965183 -0.102902 -6.06189e-010 -1.3469e-009 -2.00103e-010 -10.2786 0.731801 -0.0259123 -6.06184e-010 -1.3469e-009 -2.0011e-010 -2.22167 -0.733487 0.20892 -2.03217e-016 0 -3.88251e-019 -7.60297 4.78735 4.28199 0.00808823 -4.22309 -0.125049 -3.72185 -12.7346 -16.7946 2.03217e-016 0 3.88251e-019 7.16015 4.32714 -4.48811 -0.0125724 -0.85322 0.0262351 2.49696 -8.17053 15.4763 
